<svg width="510" height="132" viewBox="0 0 510 132" fill="none" xmlns="http://www.w3.org/2000/svg">
<path d="M51.8 66V26.4C51.8 12.372 40.428 1 26.4 1V1C12.372 1 1 12.372 1 26.4L1 38.4242C1 53.6539 13.3461 66 28.5757 66H481.424C496.654 66 509 78.3461 509 93.5758V105.6C509 119.628 497.628 131 483.6 131V131C469.572 131 458.2 119.628 458.2 105.6V66V26.4C458.2 12.372 446.828 1 432.8 1V1C418.772 1 407.4 12.372 407.4 26.4V66V105.6C407.4 119.628 396.028 131 382 131V131C367.972 131 356.6 119.628 356.6 105.6V66V26.4C356.6 12.372 345.228 1 331.2 1V1C317.172 1 305.8 12.372 305.8 26.4V66V105.6C305.8 119.628 294.428 131 280.4 131V131C266.372 131 255 119.628 255 105.6V66V26.4C255 12.372 243.628 1 229.6 1V1C215.572 1 204.2 12.372 204.2 26.4V66V105.6C204.2 119.628 192.828 131 178.8 131V131C164.772 131 153.4 119.628 153.4 105.6V66V26.4C153.4 12.372 142.028 1 128 1V1C113.972 1 102.6 12.372 102.6 26.4V66V105.6C102.6 119.628 91.228 131 77.2 131V131C63.172 131 51.8 119.628 51.8 105.6V66Z" stroke="#E3E4EE"/>
</svg>
