<svg width="241" height="241" viewBox="0 0 241 241" fill="none" xmlns="http://www.w3.org/2000/svg">
<path d="M240.5 240.5L10.5487 240.5L240.476 218.654L240.382 217.659L10.6429 239.487L240.5 195.808L240.5 240.5ZM240.336 194.822L10.8288 238.433L240.5 172.969L240.5 195.687L240.336 194.822ZM240.5 150.133L240.5 172.719L240.292 171.988L11.1018 237.316L240.5 150.133ZM240.251 149.158L11.4559 236.111L240.5 127.302L240.5 149.813L240.251 149.158ZM240.5 104.473L240.5 126.932L240.214 126.33L11.8837 234.801L240.5 104.473ZM240.181 103.504L12.3777 233.368L240.5 81.648L240.5 104.063L240.181 103.504ZM240.5 59.3957L240.5 81.2017L240.152 80.6785L13.254 231.584L240.5 59.3957ZM240.127 58.4238L13.4703 230.166L240.5 36.4913L240.5 58.9161L240.127 58.4238ZM240.5 35.1769L13.8802 228.502L240.5 13.1861L240.5 35.1769ZM240.085 12.2015L13.8268 227.173L228.798 0.9155L228.361 0.500003L240.5 0.500003L240.5 12.6388L240.085 12.2015ZM182.655 0.500002L227.814 0.500003L13.0879 226.499L205.972 1.46758L205.213 0.81679L10.7048 227.743L183.147 0.873675L182.655 0.500002ZM9.20018 228.07L160.322 0.847994L159.798 0.500002L182.175 0.500002L9.20018 228.07ZM136.937 0.500002L159.352 0.500002L7.63169 228.622L137.496 0.818727L136.937 0.500002ZM136.527 0.500002L6.19901 229.116L114.67 0.785661L114.068 0.500001L136.527 0.500002ZM91.1873 0.500001L113.698 0.500001L4.88867 229.544L91.8418 0.748735L91.1873 0.500001ZM90.8665 0.500001L3.68433 229.898L69.0117 0.708161L68.2813 0.500001L90.8665 0.500001ZM45.313 0.500001L68.0312 0.500001L2.56667 230.171L46.1784 0.664445L45.313 0.500001ZM45.1918 0.500001L1.50865 230.382L23.2985 0.5L45.1918 0.500001ZM22.294 0.5L0.5 230.426L0.500003 0.5L22.294 0.5Z" stroke="#E3E4EE"/>
</svg>
